<svg xmlns="http://www.w3.org/2000/svg" xmlns:xlink="http://www.w3.org/1999/xlink" viewBox="0 0 1800 1300"><defs><linearGradient id="a" x1="834.66" x2="830.85" y1="1020.22" y2="1063.14" gradientTransform="translate(-465.98 -300.65)" gradientUnits="userSpaceOnUse"><stop offset="0" stop-color="#f0c3a8" class="stopColorf0c3a8 svgShape"/><stop offset="1" stop-color="#ffffff" class="stopColorfff svgShape"/></linearGradient><linearGradient id="b" x1="42182.06" x2="42177.18" y1="-22131.7" y2="-22076.84" gradientTransform="matrix(-.44 .17 .17 .44 23925.97 3326.94)" xlink:href="#a"/><linearGradient id="c" x1="553.08" x2="549.63" y1="707.52" y2="746.29" xlink:href="#a"/></defs><g data-name="color copy" fill="#000000" class="color000 svgShape"><rect width="237.23" height="114.34" x="1327.15" y="466.45" fill="#46acc3" class="color46acc3 svgShape"/><path fill="#45565c" d="M1564.38,477.21H1327.15V476h237.23Zm0,9.26H1327.15v1.23h237.23Zm0,10.49H1327.15v1.23h237.23Zm0,10.48H1327.15v1.23h237.23Zm0,10.49H1327.15v1.23h237.23Zm0,11.93H1327.15v-1.22h237.23Zm0,9.26H1327.15v1.23h237.23Zm0,10.49H1327.15v1.23h237.23Zm0,10.49H1327.15v1.22h237.23Zm0,10.48H1327.15v1.23h237.23Z" class="color45565c svgShape"/><polygon fill="#c3e4dc" points="1445.77 580.78 1445.77 466.45 1327.15 580.78 1327.15 384.35 1199.23 384.35 1199.23 759.65 1327.15 759.65 1327.15 999.9 1564.38 999.9 1564.38 466.45 1445.77 580.78" class="colorc3e4dc svgShape"/><rect width="6.44" height="21.61" x="1397.37" y="561.13" fill="#184657" class="color184657 svgShape"/><rect width="6.44" height="21.61" x="1514.74" y="561.13" fill="#184657" class="color184657 svgShape"/><rect width="6.44" height="21.61" x="1257.23" y="560.62" fill="#184657" class="color184657 svgShape"/><rect width="6.44" height="21.61" x="1517.07" y="717.16" fill="#184657" class="color184657 svgShape"/><rect width="6.44" height="21.61" x="1515.38" y="640.93" fill="#184657" class="color184657 svgShape"/><circle cx="1264.69" cy="461.4" r="30.02" fill="#0d232b" transform="rotate(-80.78 1264.734 461.392)" class="color0d232b svgShape"/><path fill="#41b093" d="M1281.07,451.56c-1.73,1.73-14,11.25-15.78,9.52s7.79-14.06,9.52-15.78a4.43,4.43,0,1,1,6.26,6.26Z" class="color41b093 svgShape"/><path fill="#41b093" d="M1248.45,452.79c2.36.63,16.77,6.54,16.14,8.9s-16.07.28-18.43-.35a4.43,4.43,0,1,1,2.29-8.55Z" class="color41b093 svgShape"/><path fill="#41b093" d="M1265,480.21c-.63-2.36-2.71-17.8-.35-18.43s8.28,13.77,8.91,16.14a4.43,4.43,0,0,1-8.56,2.29Z" class="color41b093 svgShape"/><path fill="#035e80" d="M1264.77,482.06a20.58,20.58,0,1,1,20.57-20.58A20.6,20.6,0,0,1,1264.77,482.06Zm0-39.93a19.35,19.35,0,1,0,19.35,19.35A19.37,19.37,0,0,0,1264.77,442.13Z" class="color035e80 svgShape"/><path fill="#035e80" d="M1264.77,472.08a10.6,10.6,0,1,1,10.59-10.6A10.62,10.62,0,0,1,1264.77,472.08Zm0-20a9.37,9.37,0,1,0,9.36,9.37A9.38,9.38,0,0,0,1264.77,452.11Z" class="color035e80 svgShape"/><rect width="1.23" height="29.94" x="1264.15" y="461.48" fill="#035e80" class="color035e80 svgShape"/><rect width="1.23" height="29.94" x="1278.39" y="451.14" fill="#035e80" transform="rotate(-72 1279.003 466.113)" class="color035e80 svgShape"/><rect width="29.94" height="1.23" x="1258.6" y="448.75" fill="#035e80" transform="rotate(-54.01 1273.46 449.389)" class="color035e80 svgShape"/><rect width="1.23" height="29.94" x="1255.35" y="434.4" fill="#035e80" transform="rotate(-36 1255.948 449.373)" class="color035e80 svgShape"/><rect width="29.94" height="1.23" x="1235.56" y="465.49" fill="#035e80" transform="rotate(-18.01 1250.56 466.113)" class="color035e80 svgShape"/><path fill="#41b093" d="M301.67,880.15a99.69,99.69,0,0,0-15.47,120.52H740.33l-.16-1.49a108.17,108.17,0,0,0-15.31-185.35,92.73,92.73,0,0,0-60.68-145.76A59.49,59.49,0,0,0,619.4,584.2a85.75,85.75,0,1,0-168.89,4.95A101.22,101.22,0,0,0,331.07,738a74.17,74.17,0,0,0-29.4,142.14Z" class="color41b093 svgShape"/><path d="M652.83,892.1a89.8,89.8,0,0,1,13.93,108.57H257.64l.14-1.34a97.47,97.47,0,0,1,13.79-167A83.53,83.53,0,0,1,326.24,701a53.59,53.59,0,0,1,40.34-75.55A77.26,77.26,0,1,1,520.3,614.4a77.1,77.1,0,0,1-1.57,15.53A91.2,91.2,0,0,1,626.34,764,66.83,66.83,0,0,1,652.83,892.1Z" style="mix-blend-mode:overlay" fill="#f4ffd4" opacity=".21" class="colorf4ffd4 svgShape"/><polygon fill="#46acc3" points="824.84 261.93 1214.99 261.93 1214.99 670.76 1350.58 670.76 1350.58 931.18 824.84 931.18 824.84 261.93" class="color46acc3 svgShape"/><rect width="226.79" height="38.42" x="1123.79" y="632.35" fill="#46acc3" class="color46acc3 svgShape"/><rect width="91.2" height="370.42" x="1123.79" y="261.93" transform="rotate(180 1169.385 447.14)" style="mix-blend-mode:multiply" fill="#cbc7ff" opacity=".7" class="colorcbc7ff svgShape"/><rect width="84.43" height="298.83" x="1266.16" y="632.35" style="mix-blend-mode:multiply" fill="#cbc7ff" opacity=".7" class="colorcbc7ff svgShape"/><rect width="272.6" height="19.45" x="896.08" y="780.7" fill="#41b093" class="color41b093 svgShape"/><rect width="78.91" height="19.45" x="1089.78" y="780.7" style="mix-blend-mode:multiply" fill="#cbc7ff" class="colorcbc7ff svgShape"/><rect width="236.82" height="131.02" x="931.86" y="800.16" fill="#184657" class="color184657 svgShape"/><rect width="217.26" height="122.76" x="941.64" y="808.42" fill="#285362" class="color285362 svgShape"/><path d="M1161.43,371.77h-7.25V290.49h7.25Zm0,40.36h-7.25v81.29h7.25Zm0,123.69h-7.25V617.1h7.25Zm26.44-186.57h-7.25v81.28h7.25Zm0,116.86h-7.25v81.28h7.25Z" style="mix-blend-mode:multiply" fill="#86b2c2" opacity=".53" class="color86b2c2 svgShape"/><path d="M1123.79 327.85H824.84v-5h298.95zm0 56.12H824.84v5h298.95zm0 61.11H824.84v5h298.95zm0 61.11H824.84v5h298.95zm0 61.11H824.84v5h298.95zm0 61.11H824.84v5h298.95zm142.37 61.11H824.84v5h441.32zm0 61.11H824.84v5h441.32zM1316.43 729.32h-16.2v-20h16.2zm0 42.42h-16.2v20h16.2z" style="mix-blend-mode:multiply" fill="#86b2c2" class="color86b2c2 svgShape"/><rect width="197.86" height="64.79" x="913.97" y="197.14" fill="#7ac4b2" class="color7ac4b2 svgShape"/><rect width="52.74" height="64.79" x="1059.09" y="197.14" style="mix-blend-mode:multiply" fill="#cbc7ff" class="colorcbc7ff svgShape"/><rect width="10.23" height="40.28" x="1006.22" y="156.86" fill="#035e80" class="color035e80 svgShape"/><path fill="#e85f5b" d="M1049.71,127.36a39,39,0,1,1-39-39A39,39,0,0,1,1049.71,127.36Zm-39-22.5a22.5,22.5,0,1,0,22.49,22.5A22.5,22.5,0,0,0,1010.67,104.86Z" class="colore85f5b svgShape"/><path fill="#41b093" d="M1370.1,999.26a61.11,61.11,0,0,0-40-80.59,76.1,76.1,0,0,0-48.16-135c-1,0-2,0-3,.06a81.3,81.3,0,1,0-143.77-75.59,50.72,50.72,0,0,0-87.27,35.17c0,.93,0,1.84.07,2.75A92.3,92.3,0,0,0,931.65,856a113.67,113.67,0,0,0-69.26,143.23Z" class="color41b093 svgShape"/><path d="M947.51,998.52a53.58,53.58,0,0,1,35.11-70.7,66.76,66.76,0,0,1,42.24-118.45c.89,0,1.77,0,2.65,0a71.32,71.32,0,1,1,126.13-66.31A44.49,44.49,0,0,1,1230.2,774c0,.8,0,1.61-.07,2.4a81,81,0,0,1,102,96.49,99.74,99.74,0,0,1,60.76,125.66Z" style="mix-blend-mode:overlay" fill="#f4ffd4" opacity=".21" class="colorf4ffd4 svgShape"/><path fill="#bce1e9" d="M770.89 212.35a10.14 10.14 0 010-20.27 7.92 7.92 0 01.85 0 15.21 15.21 0 0128.73 0 10.21 10.21 0 011.25-.09 10.1 10.1 0 014.46 1 13.05 13.05 0 1111.51 19.22zM373.76 430.17a10.14 10.14 0 110-20.27 8.08 8.08 0 01.85.05 15.21 15.21 0 0128.73 0 9.7 9.7 0 015.71 1 13.05 13.05 0 1111.51 19.22zM1435 358.17a6.35 6.35 0 110-12.7l.53 0a9.54 9.54 0 0118 0 6.53 6.53 0 01.78 0 6.37 6.37 0 012.8.65 8.19 8.19 0 117.22 12.05zM605.67 289.71a25 25 0 10-8.54-48.51 38.69 38.69 0 00-74.38-1.61A27 27 0 10509 289.71z" class="colorbce1e9 svgShape"/><path fill="#184657" d="M616.91,423.14l-45.49-37c20.43-16.44,37.19-29.56,37.19-29.56Z" class="color184657 svgShape"/><path fill="#325a69" d="M619.24,441.87l-37.49,1.95-40.59-33.05c10-8.27,20.53-16.84,30.26-24.66l45.49,37Z" class="color325a69 svgShape"/><path fill="#527481" d="M581.75,443.82l-77.88-1.08s17.56-15.63,37.29-32Z" class="color527481 svgShape"/><path fill="#9cafb7" d="M496.79,483.34h575.92a42.3,42.3,0,0,1,42.3,42.3V865.92a0,0,0,0,1,0,0H494.91A31.89,31.89,0,0,1,463,834V517.12A33.77,33.77,0,0,1,496.79,483.34Z" transform="rotate(90 789.015 674.635)" class="color9cafb7 svgShape"/><path fill="#184657" d="M494.14,484.37h575.75a42.3,42.3,0,0,1,42.3,42.3V867a0,0,0,0,1,0,0h-618a31.89,31.89,0,0,1-31.89-31.89V516.26a31.89,31.89,0,0,1,31.89-31.89Z" transform="rotate(90 787.215 675.665)" class="color184657 svgShape"/><path d="M580.72,916.9V418.32a34,34,0,0,1,34-34H929.33a34,34,0,0,1,34,34V964.58a36.12,36.12,0,0,1-36.12,36.12H614.7C595.94,1000.7,580.72,935.66,580.72,916.9Z" style="mix-blend-mode:multiply" fill="#cbc7ff" class="colorcbc7ff svgShape"/><rect width="97.15" height="29.09" x="938.82" y="664.86" fill="#41b093" class="color41b093 svgShape"/><rect width="11.45" height="29.09" x="938.82" y="664.86" style="mix-blend-mode:multiply" fill="#cbc7ff" opacity=".7" class="colorcbc7ff svgShape"/><rect width="97.15" height="65.9" x="938.82" y="410.19" fill="#e85f5b" class="colore85f5b svgShape"/><rect width="12.98" height="65.9" x="938.82" y="410.19" style="mix-blend-mode:multiply" fill="#cbc7ff" opacity=".7" class="colorcbc7ff svgShape"/><path fill="#74909a" d="M475,496.35H1025.2a42.3,42.3,0,0,1,42.3,42.3V878.93a0,0,0,0,1,0,0H475A31.89,31.89,0,0,1,443.06,847V528.24A31.89,31.89,0,0,1,475,496.35Z" transform="rotate(90 755.28 687.64)" class="color74909a svgShape"/><path fill="#184657" d="M472,498h549.7a42.3,42.3,0,0,1,42.3,42.3V880.6a0,0,0,0,1,0,0H472A30.64,30.64,0,0,1,441.39,850V528.66A30.64,30.64,0,0,1,472,498Z" transform="rotate(90 752.705 689.315)" class="color184657 svgShape"/><path d="M546.73,943.55V445a34,34,0,0,1,34-34H895.33a34,34,0,0,1,34,34V966.49a34.2,34.2,0,0,1-34.21,34.21H580.71C561.94,1000.7,546.73,962.31,546.73,943.55Z" style="mix-blend-mode:multiply" fill="#cbc7ff" class="colorcbc7ff svgShape"/><rect width="97.15" height="65.9" x="900.96" y="730.03" fill="#85c8d7" class="color85c8d7 svgShape"/><rect width="21.1" height="65.9" x="900.96" y="730.03" style="mix-blend-mode:multiply" fill="#cbc7ff" opacity=".7" class="colorcbc7ff svgShape"/><path fill="#7e97a1" d="M533.93,999.86V434a34,34,0,0,1,34-34H882.55c16.7,0,34,13.14,34,34v523.6a42.3,42.3,0,0,1-42.3,42.3H536C534.86,999.86,533.93,1001,533.93,999.86Z" class="color7e97a1 svgShape"/><path fill="#184657" d="M455.12,510.18H979.25a42.3,42.3,0,0,1,42.3,42.3V892.76a0,0,0,0,1,0,0H455.12a31.89,31.89,0,0,1-31.89-31.89V542.07A31.89,31.89,0,0,1,455.12,510.18Z" transform="rotate(90 722.39 701.47)" class="color184657 svgShape"/><path d="M513.9,969.82V471.24a34,34,0,0,1,34-34H862.5a34,34,0,0,1,34,34V974.07c0,14.29-11.57,26.24-25.86,26.27H547.87C529.11,1000.34,513.9,988.58,513.9,969.82Z" style="mix-blend-mode:multiply" fill="#cbc7ff" class="colorcbc7ff svgShape"/><rect width="97.15" height="29.09" x="862.33" y="858" fill="#e85f5b" class="colore85f5b svgShape"/><rect width="97.15" height="65.9" x="865.42" y="539.21" fill="#fcc14a" class="colorfcc14a svgShape"/><rect width="20.73" height="65.9" x="865.42" y="539.21" style="mix-blend-mode:multiply" fill="#cbc7ff" opacity=".7" class="colorcbc7ff svgShape"/><path fill="#9cafb7" d="M507.93,439.74c21.15-19.56,85.26-72.77,108-88.07,4.18-.58,15.91-1.79,20.09-1l-98.31,81Z" class="color9cafb7 svgShape"/><rect width="569.04" height="386.46" x="402.55" y="522.88" fill="#0c252e" rx="35.93" transform="rotate(90 687.07 716.11)" class="color0c252e svgShape"/><rect width="566.52" height="382.58" x="408.02" y="521.51" fill="#97acb3" rx="33.98" transform="rotate(90 691.28 712.8)" class="color97acb3 svgShape"/><rect width="566.52" height="382.58" x="405.71" y="523.65" fill="#184657" rx="31.89" transform="rotate(90 688.975 714.935)" class="color184657 svgShape"/><rect width="492.96" height="366.63" x="442.49" y="531.62" fill="#ffffff" transform="rotate(90 688.975 714.935)" class="colorfff svgShape"/><path d="M872.29,468.46v493H505.66v-493Zm1.92-1.93H503.74V963.34H874.21Z" fill="#000000" class="color000 svgShape"/><path fill="#035e80" d="M673.35,978.53a2,2,0,0,1,2-2h24a2,2,0,1,1,0,4.06h-24A2,2,0,0,1,673.35,978.53Z" class="color035e80 svgShape"/><path d="M687.37,454.24a3.08,3.08,0,1,1,3.07-3.07A3.07,3.07,0,0,1,687.37,454.24Z" fill="#000000" class="color000 svgShape"/><rect width="366.63" height="13.12" x="505.66" y="467.21" fill="#0d232b" class="color0d232b svgShape"/><path fill="#e6e5ce" d="M531.87 473.59a2.17 2.17 0 11-2.17-2.17A2.18 2.18 0 01531.87 473.59zM547.08 473.59a2.17 2.17 0 11-2.17-2.17A2.18 2.18 0 01547.08 473.59zM517.53 473.59a2.17 2.17 0 11-2.17-2.17A2.18 2.18 0 01517.53 473.59zM858.67 473.59a2.18 2.18 0 11-2.18-2.17A2.19 2.19 0 01858.67 473.59zM847.66 473.59a2.18 2.18 0 11-2.18-2.17A2.19 2.19 0 01847.66 473.59z" class="colore6e5ce svgShape"/><rect width="24.05" height="4.35" x="675.42" y="471.13" fill="#e6e5ce" class="colore6e5ce svgShape"/><path fill="#ffffff" d="M497.68,818.78V463.57a31.89,31.89,0,0,1,31.89-31.89H835.92Z" opacity=".22" class="colorfff svgShape"/><rect width="20.03" height="11.99" x="896.48" y="605.11" style="mix-blend-mode:multiply" fill="#cbc7ff" class="colorcbc7ff svgShape"/><rect width="17" height="11.87" x="963.3" y="693.95" style="mix-blend-mode:multiply" fill="#cbc7ff" class="colorcbc7ff svgShape"/><rect width="17" height="9.29" x="963.3" y="476.1" style="mix-blend-mode:multiply" fill="#cbc7ff" class="colorcbc7ff svgShape"/><rect width="17.26" height="9.55" x="929.31" y="795.93" style="mix-blend-mode:multiply" fill="#cbc7ff" class="colorcbc7ff svgShape"/><rect width="20.43" height="10.06" x="896.08" y="887.09" style="mix-blend-mode:multiply" fill="#cbc7ff" class="colorcbc7ff svgShape"/><path d="M612.8,577.92h-76v-58.8h76ZM721,519.12H645v58.8h76Zm108.16,0h-76v58.8h76ZM612.8,608.72h-76v58.79h76Zm108.16,0H645v58.79h76Zm108.16,0h-76v58.79h76ZM612.8,698.31h-76v58.8h76Zm108.16,0H645v58.8h76Zm108.16,0h-76v58.8h76ZM612.8,787.91h-76V846.7h76Zm108.16,0H645V846.7h76Zm108.16,0h-76V846.7h76ZM612.8,877.5h-76v58.8h76Zm108.16,0H645v58.8h76Zm108.16,0h-76v58.8h76Z" style="mix-blend-mode:multiply" fill="#cbc7ff" opacity=".7" class="colorcbc7ff svgShape"/><rect width="76.01" height="58.8" x="541.43" y="513.71" fill="#184657" class="color184657 svgShape"/><rect width="76.01" height="58.8" x="649.59" y="513.71" fill="#035e80" class="color035e80 svgShape"/><rect width="76.01" height="58.8" x="757.75" y="513.71" fill="#ed6d53" class="colored6d53 svgShape"/><rect width="76.01" height="58.8" x="541.43" y="603.31" fill="#fdcf72" class="colorfdcf72 svgShape"/><rect width="76.01" height="58.8" x="649.59" y="603.31" fill="#e6e5ce" class="colore6e5ce svgShape"/><rect width="76.01" height="58.8" x="757.75" y="603.31" fill="#7ac4b2" class="color7ac4b2 svgShape"/><rect width="76.01" height="58.8" x="541.43" y="692.9" fill="#faf8dc" class="colorfaf8dc svgShape"/><rect width="76.01" height="58.8" x="649.59" y="692.9" fill="#e85f5b" class="colore85f5b svgShape"/><rect width="76.01" height="58.8" x="757.75" y="692.9" fill="#41b093" class="color41b093 svgShape"/><rect width="76.01" height="58.8" x="541.43" y="782.5" fill="#41b093" class="color41b093 svgShape"/><rect width="76.01" height="58.8" x="649.59" y="782.5" fill="#184657" class="color184657 svgShape"/><rect width="76.01" height="58.8" x="757.75" y="782.5" fill="#fcc14a" class="colorfcc14a svgShape"/><rect width="76.01" height="58.8" x="541.43" y="872.09" fill="#7ac4b2" class="color7ac4b2 svgShape"/><rect width="76.01" height="58.8" x="649.59" y="872.09" fill="#035e80" class="color035e80 svgShape"/><rect width="76.01" height="58.8" x="757.75" y="872.09" fill="#e6e5ce" class="colore6e5ce svgShape"/><polygon fill="#0d232b" points="576.14 400 603.27 400 602.85 377.99 576.14 400" class="color0d232b svgShape"/><polygon fill="#0d232b" points="573.33 402.32 573.33 429.54 540.29 429.54 573.33 402.32" class="color0d232b svgShape"/><polygon fill="#0d232b" points="635.98 350.7 635.98 375.42 605.97 375.42 635.98 350.7" class="color0d232b svgShape"/><path fill="#5693aa" d="M1588.52,1008.14H184a4.64,4.64,0,0,1,0-9.27H1588.52a4.64,4.64,0,1,1,0,9.27Z" class="color5693aa svgShape"/><rect width="39.36" height="115.4" x="1252.09" y="269.26" fill="#035e80" transform="rotate(180 1271.77 326.96)" class="color035e80 svgShape"/><rect width=".45" height="58.97" x="1258.24" y="269.26" fill="#41b093" class="color41b093 svgShape"/><rect width=".67" height="58.97" x="1261.53" y="269.26" fill="#41b093" class="color41b093 svgShape"/><rect width=".89" height="58.97" x="1264.81" y="269.26" fill="#41b093" class="color41b093 svgShape"/><rect width="1.12" height="58.97" x="1268.1" y="269.26" fill="#41b093" class="color41b093 svgShape"/><rect width="1.34" height="58.97" x="1271.38" y="269.26" fill="#41b093" class="color41b093 svgShape"/><rect width="1.57" height="58.97" x="1274.67" y="269.26" fill="#41b093" class="color41b093 svgShape"/><rect width="1.79" height="58.97" x="1277.95" y="269.26" fill="#41b093" class="color41b093 svgShape"/><rect width="2.01" height="58.97" x="1281.24" y="269.26" fill="#41b093" class="color41b093 svgShape"/><rect width=".67" height="58.97" x="1254.73" y="269.26" fill="#41b093" class="color41b093 svgShape"/><rect width=".03" height="58.97" x="1252.09" y="269.26" fill="#41b093" class="color41b093 svgShape"/><rect width="1.12" height="58.97" x="1284.52" y="269.26" fill="#41b093" class="color41b093 svgShape"/><rect width=".45" height="56.44" x="1258.24" y="328.23" fill="#41b093" class="color41b093 svgShape"/><rect width=".67" height="56.44" x="1261.53" y="328.23" fill="#41b093" class="color41b093 svgShape"/><rect width=".89" height="56.44" x="1264.81" y="328.23" fill="#41b093" class="color41b093 svgShape"/><rect width="1.12" height="56.44" x="1268.1" y="328.23" fill="#41b093" class="color41b093 svgShape"/><rect width="1.34" height="56.44" x="1271.38" y="328.23" fill="#41b093" class="color41b093 svgShape"/><rect width="1.57" height="56.44" x="1274.67" y="328.23" fill="#41b093" class="color41b093 svgShape"/><rect width="1.79" height="56.44" x="1277.95" y="328.23" fill="#41b093" class="color41b093 svgShape"/><rect width="2.01" height="56.44" x="1281.24" y="328.23" fill="#41b093" class="color41b093 svgShape"/><rect width=".67" height="56.44" x="1254.73" y="328.23" fill="#41b093" class="color41b093 svgShape"/><rect width=".03" height="56.44" x="1252.09" y="328.23" fill="#41b093" class="color41b093 svgShape"/><rect width="1.12" height="56.44" x="1284.52" y="328.23" fill="#41b093" class="color41b093 svgShape"/><rect width="2.01" height="58.97" x="1288.03" y="269.26" fill="#41b093" class="color41b093 svgShape"/><rect width="1.12" height="58.97" x="1285.64" y="269.26" fill="#41b093" class="color41b093 svgShape"/><rect width="2.01" height="56.44" x="1288.03" y="328.23" fill="#41b093" class="color41b093 svgShape"/><rect width="1.12" height="56.44" x="1285.64" y="328.23" fill="#41b093" class="color41b093 svgShape"/><path fill="#46acc3" d="M1443.83,215.44c-.08-11.26-16.66-16.85-28.48-12.83-21.6,7.36-21.7-2.64-35.56-2.46-16.77.23-19.61,4.79-25.94,4.7-12.55-.19-16.66-6.49-26.17-7.38-14.31-1.34-19.9,1.56-30.19,6-9.22,4-16-1.79-24.9,5.81-8,6.84-8.16,13.42-7.83,26.73.34,13.48,0,33.6,0,33.6h12.86s.23-28.68,2.13-35.95c6.48-4.48,16.84-5.37,25.79-3.13s15.88-7.16,28.4-1.34c9.54,4.42,16.33-8.72,29.75-2.46,2.85,1.33,12.49,6.33,24.15,5.14,8.3-.84,21.77-6.43,27.29-3.8C1431.54,235.94,1443.9,227,1443.83,215.44Z" opacity=".2" class="color46acc3 svgShape"/><rect width="138" height="79.02" x="1072.36" y="618.96" fill="#e289a9" class="colore289a9 svgShape"/><rect width="138" height="101.54" x="1072.36" y="697.98" fill="#faf8dc" class="colorfaf8dc svgShape"/><rect width="138" height="146.15" x="1072.36" y="799.52" fill="#fcc14a" class="colorfcc14a svgShape"/><rect width="34.5" height="79.02" x="1175.86" y="618.96" style="mix-blend-mode:multiply" fill="#cbc7ff" class="colorcbc7ff svgShape"/><rect width="34.5" height="101.54" x="1175.86" y="697.98" style="mix-blend-mode:multiply" fill="#cbc7ff" class="colorcbc7ff svgShape"/><rect width="34.5" height="146.15" x="1175.86" y="799.52" style="mix-blend-mode:multiply" fill="#cbc7ff" class="colorcbc7ff svgShape"/><circle cx="1074.02" cy="980.38" r="19.17" fill="#357e99" class="color357e99 svgShape"/><circle cx="1074.02" cy="980.38" r="10.06" fill="#184657" class="color184657 svgShape"/><circle cx="1223.22" cy="980.38" r="19.17" fill="#357e99" class="color357e99 svgShape"/><circle cx="1223.22" cy="980.38" r="10.06" fill="#184657" class="color184657 svgShape"/><g style="mix-blend-mode:multiply" opacity=".7" fill="#000000" class="color000 svgShape"><path fill="#cbc7ff" d="M1205.8 972.42h34.84a19.15 19.15 0 00-34.84 0zM1056.6 972.42h34.83a19.14 19.14 0 00-34.83 0z" class="colorcbc7ff svgShape"/><path fill="#41b093" d="M1205.8 972.42h34.84a19.15 19.15 0 00-34.84 0zM1056.6 972.42h34.83a19.14 19.14 0 00-34.83 0z" class="color41b093 svgShape"/></g><rect width="224.69" height="18.24" x="1035.98" y="945.67" fill="#184657" rx="5.76" class="color184657 svgShape"/><path fill="#184657" d="M1245.93,957.44a2.42,2.42,0,0,1-.47,0,2.65,2.65,0,0,1-2.15-3.08L1271,799.05a2.65,2.65,0,0,1,2.61-2.19h32.44a2.66,2.66,0,0,1,0,5.31h-30.22l-27.32,153.08A2.65,2.65,0,0,1,1245.93,957.44Z" class="color184657 svgShape"/><path fill="#f29d7e" d="M453.1,1066.4s1.07,25.5-.42,33.52c-1.24,6.75,5.35,6.69,11.3,6.39s32.38-.15,32.38-.15.93-3.83-4.72-4.72c-5-.79-18.1-7.9-18.1-7.9v-25.36Z" class="colorf29d7e svgShape"/><rect width="43.67" height="2.87" x="453.2" y="1105.9" fill="#0d232b" class="color0d232b svgShape"/><path fill="#1c3038" d="M453.42,1094.15a12.3,12.3,0,0,1,7.53,2.7c3.67,2.9,10.81,1.94,10.81,1.94l3.67-4.83s11.78,6,14.49,6.56,6.37,1.16,6.56,3.29a20.67,20.67,0,0,1,0,3.86l-43.26-.58s-1.93-2.51-1.74-5A52.22,52.22,0,0,1,453.42,1094.15Z" class="color1c3038 svgShape"/><rect width="45.51" height="2.87" x="451.18" y="1105.9" fill="#0d232b" class="color0d232b svgShape"/><path fill="#f29d7e" d="M393,1066.38s-3.69,23.68-6.77,33.54c-2,6.55,5.35,6.69,11.29,6.39s32.38-.15,32.38-.15.94-3.83-4.71-4.72c-5-.79-18.16-7.9-18.16-7.9l4.88-24.85Z" class="colorf29d7e svgShape"/><path fill="#1c3038" d="M387.17,1094.15a12.3,12.3,0,0,1,7.53,2.7c3.67,2.9,10.82,1.94,10.82,1.94l3.67-4.83s11.78,6,14.48,6.56,6.38,1.16,6.57,3.29a21.75,21.75,0,0,1,0,3.86l-43.26-.58s-1.93-2.51-1.74-5A51.33,51.33,0,0,1,387.17,1094.15Z" class="color1c3038 svgShape"/><rect width="45.51" height="2.87" x="384.94" y="1105.9" fill="#0d232b" class="color0d232b svgShape"/><path fill="#f29d7e" d="M456.84,804.38s18.15,0,20.61-1.23-8.15-17.53-8.15-17.53l-22.45,2.31Z" class="colorf29d7e svgShape"/><path fill="#d7b98f" d="M400.72,844.82c-5.84,19.68-4,34.13.31,64.27,4.22,29.53-11.53,162.52-11.53,162.52l22,2.31s19.07-84.88,25.83-131,8-100.25,8-100.25Z" class="colord7b98f svgShape"/><path d="M437,944.92c2.24-17.78,5.53-48.9,6.52-64.22l-34.1-21.43c-.61,15.58,2.67,29.53,12.66,44.59C430.64,916.75,435.15,939.27,437,944.92Z" style="mix-blend-mode:multiply" fill="#cbc7ff" opacity=".41" class="colorcbc7ff svgShape"/><path fill="#e1caab" d="M467.45,839.9c12.3,48.9,17.22,87,14.76,155.91s-4.3,77-4.3,77l-25.83.46s-9.87-81.46-10.46-130.69C441,891,402.26,895.87,408.1,843Z" class="colore1caab svgShape"/><path fill="#f29d7e" d="M479.94,784.81c-3-5.92-12.08-18.61-16.81-24.71l-19.27,13.77s8.22,10.68,21.28,25a13.48,13.48,0,0,0,10.77,4.76C482.06,803.46,484.67,794.08,479.94,784.81Z" class="colorf29d7e svgShape"/><path fill="#f29d7e" d="M419.87,707.75c-1.91-.36-1.77,2.09-1.77,2.09-1.91-.37-4.43,1.88-2.92,2.21s5.49,4.17,5.49,4.17-5.8-2-6-.65,8.92,5.51,11.63,9,5.45,10.59,13.13,23.05c6,9.77,35,36.38,41,40.49-2.92-24.29-49.89-80.72-54.13-82.89a2.6,2.6,0,0,0-3.24.71A2.42,2.42,0,0,0,419.87,707.75Z" class="colorf29d7e svgShape"/><path d="M452.84,787.73l10.92,16.4s1.85-18.35,3.69-20.92c4.28-5.94,7.49-6.12,7.49-6.12l-2.35-3.21Z" style="mix-blend-mode:multiply" fill="#cbc7ff" opacity=".7" class="colorcbc7ff svgShape"/><path fill="#ed6d53" d="M416.87,686.92l4,5.26a1.05,1.05,0,0,1-.64,1.67l-3.5.68Z" class="colored6d53 svgShape"/><path fill="#f29d7e" d="M417.61,689c.38,12.36,0,23.4-12.58,22.6-4.85-.31-10.53-13.08-11.53-25.4s-5.65-18.65,7-19.07C418.59,666.5,417.23,676.62,417.61,689Z" class="colorf29d7e svgShape"/><path fill="#184657" d="M417.36,682.21a12.27,12.27,0,0,1-1.43.16l-1.39.12c-.46,0-.92.08-1.37.13l-.68.09-.71.11h-.15a.31.31,0,0,1-.18-.15.27.27,0,0,1,.13-.35.26.26,0,0,1,.34.13.23.23,0,0,0-.16-.14h-.12l0,0,.08,0,.16-.11.34-.19a6.22,6.22,0,0,1,.71-.29,7,7,0,0,1,1.49-.28,9.36,9.36,0,0,1,1.5,0,6.56,6.56,0,0,1,1.46.32.27.27,0,0,1,.16.35A.27.27,0,0,1,417.36,682.21Z" class="color184657 svgShape"/><path fill="#ed6d53" d="M415.82,694a3.41,3.41,0,1,1-3.51-3.3A3.42,3.42,0,0,1,415.82,694Z" class="colored6d53 svgShape"/><path fill="#f29d7e" d="M378.87,744.13c15.41,7.76,33.39,9.27,50.55,10.85l-.18-1.82c-.22-2.55-2.95-5.58-5.05-8.41a15.44,15.44,0,0,0-9-6c-2.07-.46-3.27-1.07-4.08-4.06-1.59-5.82-8-43.56-8-43.56l-20.13,5.16s1.56,33.19.9,38.33A15.15,15.15,0,0,1,378.87,744.13Z" class="colorf29d7e svgShape"/><path d="M411.59,736.08a9.55,9.55,0,0,1-.49-1.41c-1.59-5.82-8-43.56-8-43.56l-20.13,5.16s1.56,33.19.9,38.33a5.23,5.23,0,0,1-.94,2.33Z" style="mix-blend-mode:multiply" fill="url(#a)" opacity=".47"/><path fill="#0d232b" d="M416.07,686.47a.88.88,0,1,1-.79-1A.88.88,0,0,1,416.07,686.47Z" class="color0d232b svgShape"/><path fill="#184657" d="M382.46,710.59a9.47,9.47,0,0,1-7-12.32c1.3-4,1.93-8.74-.34-12.56-6-10.12.89-24,13.15-22.58,12.73,1.44,18.18-3.53,24-1.75,3.77,1.15,4.13,5.61,1.57,8.32-.61.65.83,1.12-.06,1.18-2.84.17-6.12,2-4.78,7.41,1.68,6.87-3.75,8.38-2.95,12.83l-2.19.11s-.59-7-.52-9.63c-3.06.36-6.44,6.54-6.56,13.65C396.49,709.89,389.13,711.85,382.46,710.59Z" class="color184657 svgShape"/><path fill="#ed6d53" d="M404.1,699.23a8.77,8.77,0,0,1-.55-17.54Z" class="colored6d53 svgShape"/><path fill="#bd422a" d="M404,695.08a4.62,4.62,0,1,1-.29-9.24Z" class="colorbd422a svgShape"/><path fill="#e85f5b" d="M372.94,767.63c-1.82-9.09,0-22.84,10.25-32.39,0,0,15.19-4.14,25.83-4.51s33.31.71,43.12,12.93,22.06,31.18,22.06,31.18c-3.71,4.58-16,12.59-20.81,13.79,0,0,17.14,31.28,14.06,51.27,0,0-3.07,5.84-30.14,9.84-20.4,3-38.43-3.38-38.43-3.38s5.53-14.46-3.39-35.67C384.35,784.17,375.71,781.47,372.94,767.63Z" class="colore85f5b svgShape"/><path d="M438.39,764.28s15.67,42.47,25.5,78.35c3-1.6,3.56-2.73,3.56-2.73,2.11-13.69-5.27-32.69-10.13-43.29-2.4-4.84-3.93-8-3.93-8C446.54,777.71,438.39,764.28,438.39,764.28Z" style="mix-blend-mode:multiply" fill="#cbc7ff" opacity=".7" class="colorcbc7ff svgShape"/><path fill="#f29d7e" d="M456.74 795.29c-5.05 1-8.24 4-6.85 5s8.1-1.07 8.1-1.07-7.43 1.33-7.12 3.79 8.36 0 8.36 0-6 1.52-5.34 3.95 5.93-.23 5.93-.23-4.27 1.69-3.56 3.23 4.65.77 6.32-2 2.41-10.35-1.64-15-7.28-4.21-7.28-4.21zM1285.31 788c0-.77 1-.83 2-.67-1-.37-1.85-.91-1.81-1.62s1.52-.87 3-.74c-1.42-.34-2.85-.91-2.8-1.84s2.09-1 3.93-.72c-1.31-.35-2.54-.9-2.49-1.7s2.92-.8 5.74-.56l-.44 0c-1.47-.18-1.25-2.29 2.42-1.9s13.72-.19 33.25-4.47c17.74-3.89 36-12 48.56-18.13 4 3.69 8.62 11.77 10.3 16.18-8.83 5-21.29 7.77-34.14 11.57-23.07 6.84-31.37 7.32-51.86 8.12C1290.25 791.86 1285.22 789.63 1285.31 788z" class="colorf29d7e svgShape"/><path fill="#ed6d53" d="M1349.5,783.68a3.67,3.67,0,1,0-7,2.07,2.85,2.85,0,0,0,.2.51c2.22-.61,4.53-1.28,7-2A2.94,2.94,0,0,0,1349.5,783.68Z" class="colored6d53 svgShape"/><path fill="#f4a88c" d="M1411.71 953.68c-.19 12.58-1.77 26.07-1.37 33a104.59 104.59 0 001.18 11.29h-33.37s2.12-4 10-4.81c5.27-.53 6.88-6.29 6.88-15.13s-3-23.77-3-23.77zM1480.48 952.24c1.77 9 2.3 31.31 2.89 36s.65 9.24.65 9.24h-31s.52-3.73 3.27-3.87c8.85-.42 10.59-1.57 12.16-5s-4.25-28-6.42-34.85S1480.48 952.24 1480.48 952.24z" class="colorf4a88c svgShape"/><path fill="#184657" d="M1460.25,818.63c3.34,11.79,2.75,17.88,1.76,24.36-1.2,8-.57,43.71,7.86,65.24,13.55,34.59,13.55,75.15,13.55,75.15-3.19,1.7-12,2.54-16,1.89,0,0-21.94-61.72-32.16-80.19-9.47-17.11-23.38-48.14-23.38-48.14L1438,818.63Z" class="color184657 svgShape"/><path fill="#325a69" d="M1455.14,818.82c2,17.69-4,34.69-11.73,45.92-8.71,12.64-21.87,25.41-27,57.63-4.93,31.06-4.46,64.16-4.46,64.16-3.73,1.05-13.9.77-18.7-.21a731.61,731.61,0,0,1-3.17-74.16c.39-40.09,19.65-92,19.65-92Z" class="color325a69 svgShape"/><path fill="#f29d7e" d="M1416.54,752.84c-5.91,7.38-18.11,7.14-20.7,6.06-4.65-1.95-5.2-3.19-7.19-7.15,7.49-7.53,8.41-6.85,8-10.66-.48-4.2-9.39-24.06-9.39-24.06l17.82-6.7s8.44,19.75,10.28,22.87c1.11,1.89,6.45,4.38,8.9,6.37C1423.07,745,1420.08,748.42,1416.54,752.84Z" class="colorf29d7e svgShape"/><path d="M1396.66,742.14a5.52,5.52,0,0,0,0-1c-.48-4.2-9.39-24.06-9.39-24.06l17.82-6.7s8.44,19.75,10.28,22.87a3.47,3.47,0,0,0,1.27,1.22Z" style="mix-blend-mode:multiply" fill="url(#b)"/><path d="M1394.49,729a13.48,13.48,0,0,1-2.07.58c-2.64-6.92-5.25-13.36-5.25-13.36l12-4.22C1401.47,719.7,1400.16,726.94,1394.49,729Z" style="mix-blend-mode:multiply" fill="#cbc7ff" opacity=".58" class="colorcbc7ff svgShape"/><path fill="#f29d7e" d="M1380.36,710.12c.9,8.58,4.83,15.29,13.05,14.33,6.31-.66,10.69-8.15,9.79-16.73s-3.79-15.31-13.06-14.34C1379.94,694.45,1379.46,701.54,1380.36,710.12Z" class="colorf29d7e svgShape"/><path fill="#283b42" d="M1408,693.63c2.38,4.07,6.19,8.32-1.59,19.23l-6-1.39,2.9-13.15Z" class="color283b42 svgShape"/><path d="M1384.05,707.12a.87.87,0,1,0,.77-1A.86.86,0,0,0,1384.05,707.12Z" fill="#000000" class="color000 svgShape"/><path fill="#ed6d53" d="M1398.42,714.07a6.12,6.12,0,1,0-1.28-12.18Z" class="colored6d53 svgShape"/><path fill="#e85f5b" d="M1364.25,760.24c-.52,4.33,7.35,15.79,7.35,15.79l20.72-25.15-2.63-2s-10.28,3.62-15.65,6.65A81.73,81.73,0,0,1,1364.25,760.24Z" class="colore85f5b svgShape"/><path d="M1392.32,750.88l-2.63-2s-10.28,3.62-15.65,6.65a81.73,81.73,0,0,1-9.79,4.74,4.77,4.77,0,0,0,0,1.06c-10.86,4.78-23.63,9.65-36.17,12.4-19.53,4.28-29.57,4.87-33.25,4.47s-3.89,1.72-2.42,1.9l.44,0c-2.82-.24-5.7-.28-5.74.56s1.19,1.35,2.49,1.7c-1.84-.24-3.87-.29-3.93.72s1.38,1.5,2.8,1.84c-1.43-.13-2.9-.06-3,.74s.84,1.25,1.81,1.62c-1-.16-2-.1-2,.67-.09,1.66,4.94,3.89,15.65,3.47,17.16-.67,25.77-1.11,41.67-5.26l0,.08c2.22-.61,4.53-1.28,7-2h0l3.2-.94c12.85-3.8,25.31-6.52,34.14-11.57a55.24,55.24,0,0,0-4.56-8.83Z" style="mix-blend-mode:multiply" fill="#cbc7ff" opacity=".7" class="colorcbc7ff svgShape"/><path fill="#bd422a" d="M1398.12,711.19a3.23,3.23,0,0,0-.67-6.42Z" class="colorbd422a svgShape"/><path fill="#ed6d53" d="M1385.53 711.67a2.68 2.68 0 102.39-2.95A2.7 2.7 0 001385.53 711.67zM1381.12 706.82l-3.21 5.34a1 1 0 00.76 1.5l3.35.28z" class="colored6d53 svgShape"/><path fill="#283b42" d="M1397.21,703.39l.59,4.78-1.68.27a33.94,33.94,0,0,0-.85-5Z" class="color283b42 svgShape"/><path fill="#283b42" d="M1381.37,698.16c-2.27-1.55-2.71-6.5,3.59-9.67a20,20,0,0,1,14.91-1.6c4.06,1.12,5.78,3.56,6.22,3.55-.2-.91-1.26-2-.56-4.54,1.31-4.79,8.84-5.17,11.49-1.89s3.2,8.57-1.47,11.26c-2.09,1.2-6.26-.72-7.53-1.64-.11,1.09,1.58,3,1,7-1,6.88-10.55,4.69-13,3.91-3.27-1-5-4.63-6.65-9.19C1389.38,695.39,1386.55,694.51,1381.37,698.16Z" class="color283b42 svgShape"/><path fill="#035e80" d="M1387.78,704c-.47.12-.94.21-1.39.29l-1.36.23c-.45.07-.9.16-1.34.25l-.66.15-.69.17h-.15a.3.3,0,0,1-.19-.13.25.25,0,0,1,.1-.35.25.25,0,0,1,.35.09.25.25,0,0,0-.18-.13c-.09,0-.07,0-.08,0h0l0,0,.07-.06.14-.12.32-.22a4.79,4.79,0,0,1,.68-.34,6.28,6.28,0,0,1,1.45-.41,7.28,7.28,0,0,1,1.47-.11,6.57,6.57,0,0,1,1.47.18.27.27,0,0,1,.19.33A.3.3,0,0,1,1387.78,704Z" class="color035e80 svgShape"/><path fill="#283b42" d="M1381.21,714.48s-2.11,11,1.78,11.92c5.92,1.43,12.21-2.07,14.43-3.27,2-1.09.81-10.5.81-10.5l-.43-4.46-1.68.27s-.23,5.8-4.61,6.64C1390,715.37,1385.76,713.29,1381.21,714.48Z" class="color283b42 svgShape"/><path fill="#ffffff" d="M1381.63,716.45l-.72,0c-.06.48-.12,1-.17,1.62a4.29,4.29,0,0,0,1.08,0c1.4-.14,2.47-.92,2.38-1.74S1383,716.3,1381.63,716.45Z" class="colorfff svgShape"/><path d="M1460.7,821.64c-8.51,4.32-22.13,7.6-31,6.68s-22.14-.78-22.14-.78l.92-3.54,51.61-6.29Z" style="mix-blend-mode:multiply" fill="#cbc7ff" class="colorcbc7ff svgShape"/><path fill="#184657" d="M1283.89 802.32a2.7 2.7 0 01-2.7-2.7V784a2.71 2.71 0 115.41 0v15.64A2.7 2.7 0 011283.89 802.32zM1292.2 802.32a2.7 2.7 0 01-2.7-2.7V784a2.7 2.7 0 115.4 0v15.64A2.7 2.7 0 011292.2 802.32z" class="color184657 svgShape"/><path fill="#f29d7e" d="M1280.48,796.38c0-.77,1-.83,2-.67-1-.37-1.84-.91-1.8-1.63s1.51-.86,2.94-.74c-1.41-.33-2.85-.9-2.79-1.84s2.09-1,3.92-.71c-1.3-.36-2.53-.91-2.49-1.7s2.93-.81,5.74-.56l-.43-.06c-1.47-.17-1.26-2.29,2.42-1.89s13.72-.19,33.24-4.47c17.75-3.9,36-12,48.57-18.13,4,3.69,8.62,11.77,10.3,16.18-8.83,5-21.29,7.76-34.14,11.57-23.08,6.84-31.38,7.32-51.86,8.12C1285.42,800.26,1280.38,798,1280.48,796.38Z" class="colorf29d7e svgShape"/><path fill="#ed6d53" d="M1344.67,792.08a3.67,3.67,0,0,0-7,2.07,3.28,3.28,0,0,0,.2.52c2.22-.61,4.53-1.28,7-2A4.25,4.25,0,0,0,1344.67,792.08Z" class="colored6d53 svgShape"/><path fill="#e85f5b" d="M1420.55,736.79c15.27,4.81,25.48,27.15,33,50.79a153.49,153.49,0,0,1,6.69,31s-6.29,5.3-24.76,7.07-27.51-.39-27.51-.39-6.29-25.94-13.17-35.17-7.64-10.61-7.64-10.61-10.09,3.78-16.6,6.09a39.66,39.66,0,0,1-6.1-9.24,79.21,79.21,0,0,1-3.36-9.46s12.82-6.94,19.76-12.19a195.66,195.66,0,0,1,20.38-13A34.85,34.85,0,0,1,1420.55,736.79Z" class="colore85f5b svgShape"/><path d="M1401.05,802.75c-1.89-5-4-9.66-6.24-12.61-6.87-9.24-7.53-10.66-7.53-10.66,7.88-3.47,10.17-5.45,10.17-5.45S1403.09,791.56,1401.05,802.75Z" style="mix-blend-mode:multiply" fill="#cbc7ff" opacity=".7" class="colorcbc7ff svgShape"/><path fill="#035e80" d="M1377.82 997.88s.21-2.84 2-3.57 7.35-1.48 9.24-1.79 3.68-2.73 3.68-2.73 5.46 3.36 10.19 3.15a25.5 25.5 0 008-1.58l.94 6.52zM1452.67 997.63s.2-2.83 1.93-3.57 6.35-1.47 8.18-1.79 4.5-2.31 4.5-2.31 4.34 2.95 8.91 2.73a24.1 24.1 0 007.72-1.57l.91 6.51z" class="color035e80 svgShape"/><rect width="32.47" height="1.57" x="1452.46" y="997.43" fill="#283b42" transform="rotate(180 1468.69 998.22)" class="color283b42 svgShape"/><rect width="34.97" height="1.57" x="1377.26" y="997.43" fill="#283b42" transform="rotate(180 1394.745 998.22)" class="color283b42 svgShape"/><path d="M509.39 1095.18l1.55 13.63h3.34v-10.22a62.24 62.24 0 017.66 6.31c2.69 2.82 7.57 5 13.94 3.38l-.42-1.37-19.89-12zM569.08 1095.18l2.13 13.5h3.31l.19-10a62.93 62.93 0 017.63 6.31c2.7 2.82 7.57 5 13.94 3.39l-.41-1.37-19.9-12z" style="mix-blend-mode:multiply" fill="#0d232b" class="color0d232b svgShape"/><path fill="#f29d7e" d="M535.48,1107.46a10.1,10.1,0,0,1-4,.33c-2.41-.32-6.11-.46-11.68-6.3-4.22-4.41-8-5-10.43-6.37.77-6,1.14-16.57,1.32-28.78h19.67c-1.29,14.26-2.21,24.74-2,26.38C529.11,1100.55,535.45,1105.38,535.48,1107.46Z" class="colorf29d7e svgShape"/><path d="M542.1,904l-28-1.87c-.85,6.6-1.41,13.66-1.78,21a41.55,41.55,0,0,1,20.32-1,26,26,0,0,1,7.41,2.44C541,911.39,542.1,904,542.1,904Z" style="mix-blend-mode:multiply" fill="#cccccc" class="colorccc svgShape"/><path fill="#f29d7e" d="M595.87,1107a6.94,6.94,0,0,1-3.14.84c-2.42.16-6.72-.58-11.37-5.14s-7.7-6.19-12.28-7.48c-.47-6.49-1.62-16.52-3-28.84h18.8c.61,14.51,1.3,25.2,1.78,26.78C589,1100.64,595.43,1104.93,595.87,1107Z" class="colorf29d7e svgShape"/><path fill="#46acc3" d="M541.59 903.42s-2 13-2.85 35.29-.82 37-4 77.71c-1.33 17-3 35.43-4.35 49.92H510.71c.33-21.94 0-49.31.36-65.74.61-31.41-1.27-69.8 2.5-99zM583.58 1015.65c.12 17.11.65 35.89 1.28 50.69h-18.8c-2.25-19.87-5.12-45.67-6.79-72.1-2.11-33.33-2.52-59.19-2.95-89.2l29.34-3.32s-1.18 24.35-1.81 48.71C583.22 975.14 583.33 980.75 583.58 1015.65z" class="color46acc3 svgShape"/><path d="M556.72,922a38.78,38.78,0,0,1,13.22-3.88c5.34-.59,10.81.88,14.8,2.43.51-13.4,1-23.21,1-23.21l-29.34,3.32C556.49,908,556.59,915,556.72,922Z" style="mix-blend-mode:multiply" fill="#cccccc" class="colorccc svgShape"/><path fill="#ed6d53" d="M568.41,699.29l4.09,4.36a1,1,0,0,1-.42,1.56l-3.08.94Z" class="colored6d53 svgShape"/><path fill="#f29d7e" d="M569.26,701.08c1.48,11.07-.46,21.2-9.22,21.46-4.39.14-10.67-10.78-12.7-21.77s-6.79-16.23,4.51-17.77C568.08,680.78,567.78,690,569.26,701.08Z" class="colorf29d7e svgShape"/><path fill="#ed6d53" d="M569.41,704.77a3.48,3.48,0,1,1-3.91-3A3.49,3.49,0,0,1,569.41,704.77Z" class="colored6d53 svgShape"/><path fill="#f29d7e" d="M513.62,831.3c1.71-4.81,5.12-34.34,11.76-47,1.09-2.07,3.27-5.76,4.39-7.77.58-7.5,4.43-26.66-8-19.87-11.71,6.41-21.89,34.46-23.93,64.32-.55,8-2.47,13.09,3.27,16.8C507.12,841.68,512.24,835.18,513.62,831.3Z" class="colorf29d7e svgShape"/><path fill="#ed6d53" d="M503.66,834.54a4.84,4.84,0,0,0-4.53,1.6,10,10,0,0,0,2,1.67,6.37,6.37,0,0,0,6.45.56A4.86,4.86,0,0,0,503.66,834.54Z" class="colored6d53 svgShape"/><path fill="#f29d7e" d="M559.68,772.14a125.21,125.21,0,0,1,19.58,1.28c.7-4,.21-7.93,0-12.07-.14-2.3-2.52-5.11-4.34-7.72a14,14,0,0,0-8-5.69c-1.86-.46-2.93-1.05-3.58-3.76-1.28-5.3-6.09-39.56-6.09-39.56l-18.32,4.12s.52,30-.21,34.64c-.67,4.24-7.56,6.5-16,10.3,4.79,6.37,6.29,15.68,5.51,23.62C537.53,770.36,549.54,772.34,559.68,772.14Z" class="colorf29d7e svgShape"/><path d="M563.75,745.46a7.73,7.73,0,0,1-.41-1.28c-1.28-5.3-6.09-39.56-6.09-39.56l-18.32,4.12s.52,30-.21,34.64a4.71,4.71,0,0,1-.91,2.08Z" style="mix-blend-mode:multiply" fill="url(#c)" opacity=".47"/><path fill="#0d232b" d="M567.27,747.94c3,2.17,9.25,21,9.25,21l8,1.24s-5.23-13.18-9-17.25A17.35,17.35,0,0,0,567.27,747.94Z" class="color0d232b svgShape"/><path fill="#035e80" d="M592.08,864.55c-4.76-32.54-11.82-47.95-13.28-58.06L577,795.79a15.9,15.9,0,0,0,10.35-10.12c2.93-8.41-4-16.94-4-16.94s-4.87-1-24.13-.49a186.14,186.14,0,0,0-33.87,3.9l-4.39,13.41,1.41,18.81c-1.34,7.8-8.26,18.41-15.93,40.72s-9.61,69.28-9.61,69.28,16.82,3.78,52.89,2.8c35.48-1,48.74-4.39,48.74-4.39S596.83,897.08,592.08,864.55Z" class="color035e80 svgShape"/><path fill="#f29d7e" d="M563.45,755.87c-.73,14.15,19,39,44.82,57.45s51-30,58.39-42.09,6.45-18.24,5.58-16.61c.62-1.73-2-3.22-3-1.62.8-1.75-2.32-3-3.54-1,.7-1.68,2.82-5.12,1-5.83s-7.4,10-8.85,12.83c.66-1.29,1.93-3.83,2.41-5.16a1.83,1.83,0,0,0-1-2.2c-.59-.2-1,.41-2.27,2.49-2.55,4.16-12.59,26.91-34.1,45-5.31.53-25.35-19.11-36.64-39.56C581.44,750.74,564.22,740.87,563.45,755.87Z" class="colorf29d7e svgShape"/><path fill="#ed6d53" d="M620.84 812.74a5.17 5.17 0 00-4.55 4.28 19.5 19.5 0 0010.09-.49A5.19 5.19 0 00620.84 812.74zM558.06 711.53a7.93 7.93 0 11-2.1-15.72z" class="colored6d53 svgShape"/><path fill="#bd422a" d="M557.56,707.81a4.18,4.18,0,1,1-1.1-8.28Z" class="colorbd422a svgShape"/><path fill="#035e80" d="M567.92,678.16c-1.29-3.3-6.35-5.91-12.08-5.26-2.65-2.15-6.27-3.25-11-2.57-10.41,1.51-8.79,7.57-18.58,11.59s-12.46,1.75-21.92,2.77-15.17,4.24-21.16,10.94-7.34,11.31-16,13-12.24.4-20.74,6.7-8.6,9.27-13.33,14.33-4.67,14.7,4.09,19.61c3.19,1.79,10,1.13,15.88-2.61s10.87-5.14,17.51-3.32,14.34.54,19-3.28,10.13-7,21.11-5.77,14.75,0,21.47-6.81a114.93,114.93,0,0,1,9.39-8.87s19.75-19.61,20.15-29.5c0-.78,0-1.56,0-2.34a4.63,4.63,0,0,1,1.93.06C568.1,688,569.38,681.92,567.92,678.16Z" class="color035e80 svgShape"/><path d="M537.91,707.68c-9.38,0-20.24-5.34-25.8,0s-11.09,10.89-16.5,11.8-13.57-2.25-20.39,2-8.65,11.12-15.71,13.54-10.42.65-15.88,6.73a16.89,16.89,0,0,0-3.79,8.31c3.55.53,8.7-.52,13.29-3.43,5.9-3.74,10.87-5.14,17.51-3.32s14.34.54,19-3.28,10.13-7,21.11-5.77,14.75,0,21.47-6.81a114.93,114.93,0,0,1,9.39-8.87A143.45,143.45,0,0,0,556,701.65S547.29,707.68,537.91,707.68Z" style="mix-blend-mode:multiply" fill="#cbc7ff" class="colorcbc7ff svgShape"/><path fill="#0d232b" d="M567.65,699a.79.79,0,0,1-.8.79.79.79,0,0,1-.79-.79.79.79,0,0,1,.79-.8A.8.8,0,0,1,567.65,699Z" class="color0d232b svgShape"/><path fill="#035e80" d="M534.55,748s23.9-2.79,30.62-1.19,11.51.88,18.59,8.49c0,0-.18,11.33-14.16,18.77s-48.19,12.3-48.19,12.3-8.76-14.74-7.22-24.87C514.19,761.53,520.35,752.55,534.55,748Z" class="color035e80 svgShape"/><path d="M576.37 1099h0a.53.53 0 01-.5-.56 7.3 7.3 0 00-2.17-5.48 6.59 6.59 0 00-4.91-2 .53.53 0 01-.56-.5.55.55 0 01.51-.56 7.61 7.61 0 015.71 2.3 8.41 8.41 0 012.48 6.29A.54.54 0 01576.37 1099zM587.78 1107.66a.52.52 0 01-.38-.16.53.53 0 010-.75c1.09-1 3.74-4.16 3-5.83a.53.53 0 111-.45c1.25 2.65-2.71 6.6-3.17 7A.51.51 0 01587.78 1107.66zM516.89 1099.5h-.09a.53.53 0 01-.43-.61 6.66 6.66 0 00-1.28-5.47 7 7 0 00-5.19-2.54.55.55 0 01-.51-.56.53.53 0 01.56-.5 8.09 8.09 0 016 2.94 7.71 7.71 0 011.5 6.31A.55.55 0 01516.89 1099.5zM527.38 1107.62a.53.53 0 01-.23-1c.05 0 4.9-2.46 4.1-5.31a.53.53 0 01.37-.65.52.52 0 01.65.36c1 3.7-4.42 6.44-4.65 6.55A.53.53 0 01527.38 1107.62z" style="mix-blend-mode:multiply" fill="#0d232b" class="color0d232b svgShape"/><path fill="#5693aa" d="M646.6,1118h-312a4.64,4.64,0,1,1,0-9.27H646.6a4.64,4.64,0,0,1,0,9.27Z" class="color5693aa svgShape"/></g></svg>